<?xml version="1.0" encoding="UTF-8" standalone="yes"?><svg xmlns="http://www.w3.org/2000/svg" xmlns:xlink="http://www.w3.org/1999/xlink" height="247px" style="width:449px;height:247px;" version="1.1" viewBox="0 0 449 247" width="449px"><defs><filter height="300%" id="f1" width="300%" x="-1" y="-1"><feGaussianBlur result="blurOut" stdDeviation="2.0"/><feColorMatrix in="blurOut" result="blurOut2" type="matrix" values="0 0 0 0 0 0 0 0 0 0 0 0 0 0 0 0 0 0 .4 0"/><feOffset dx="4.0" dy="4.0" in="blurOut2" result="blurOut3"/><feBlend in="SourceGraphic" in2="blurOut3" mode="normal"/></filter></defs><g><polygon fill="#FFFFFF" filter="url(#f1)" points="189,34,199,24,379,24,379,109,369,119,189,119,189,34" style="stroke: #000000; stroke-width: 2.0;"/><line style="stroke: #000000; stroke-width: 2.0;" x1="369" x2="378" y1="34" y2="25"/><line style="stroke: #000000; stroke-width: 2.0;" x1="189" x2="369" y1="34" y2="34"/><line style="stroke: #000000; stroke-width: 2.0;" x1="369" x2="369" y1="34" y2="119"/><text fill="#000000" font-family="sans-serif" font-size="14" font-weight="bold" lengthAdjust="spacingAndGlyphs" textLength="95" x="232.5" y="49.9951">smartphone</text><polygon fill="#FFFFFF" filter="url(#f1)" points="22,155,32,145,379,145,379,232,369,242,22,242,22,155" style="stroke: #000000; stroke-width: 2.0;"/><line style="stroke: #000000; stroke-width: 2.0;" x1="369" x2="378" y1="155" y2="146"/><line style="stroke: #000000; stroke-width: 2.0;" x1="22" x2="369" y1="155" y2="155"/><line style="stroke: #000000; stroke-width: 2.0;" x1="369" x2="369" y1="155" y2="242"/><text fill="#000000" font-family="sans-serif" font-size="14" font-weight="bold" lengthAdjust="spacingAndGlyphs" textLength="56" x="168.5" y="170.9951">servior</text><rect fill="#FEFECE" filter="url(#f1)" height="39.2969" style="stroke: #A80036; stroke-width: 1.5;" width="157" x="205.5" y="64"/><polygon fill="#FEFECE" points="345.5,69,345.5,83,357.5,83,357.5,75,351.5,69,345.5,69" style="stroke: #A80036; stroke-width: 1.5;"/><line style="stroke: #A80036; stroke-width: 1.5;" x1="351.5" x2="351.5" y1="69" y2="75"/><line style="stroke: #A80036; stroke-width: 1.5;" x1="357.5" x2="351.5" y1="75" y2="75"/><text fill="#000000" font-family="sans-serif" font-size="14" lengthAdjust="spacingAndGlyphs" textLength="127" x="215.5" y="89.9951">aplicação frontend</text><rect fill="#FEFECE" filter="url(#f1)" height="39.2969" style="stroke: #A80036; stroke-width: 1.5;" width="158" x="205" y="186"/><polygon fill="#FEFECE" points="346,191,346,205,358,205,358,197,352,191,346,191" style="stroke: #A80036; stroke-width: 1.5;"/><line style="stroke: #A80036; stroke-width: 1.5;" x1="352" x2="352" y1="191" y2="197"/><line style="stroke: #A80036; stroke-width: 1.5;" x1="358" x2="352" y1="197" y2="197"/><text fill="#000000" font-family="sans-serif" font-size="14" lengthAdjust="spacingAndGlyphs" textLength="128" x="215" y="211.9951">aplicação backend</text><path d="M38,195 C38,185 104,185 104,185 C104,185 170,185 170,195 L170,216.2969 C170,226.2969 104,226.2969 104,226.2969 C104,226.2969 38,226.2969 38,216.2969 L38,195 " fill="#FEFECE" filter="url(#f1)" style="stroke: #A80036; stroke-width: 1.5;"/><path d="M38,195 C38,205 104,205 104,205 C104,205 170,205 170,195 " fill="none" style="stroke: #A80036; stroke-width: 1.5;"/><text fill="#000000" font-family="sans-serif" font-size="14" lengthAdjust="spacingAndGlyphs" textLength="112" x="48" y="217.9951">banco de dados</text><ellipse cx="423" cy="52" fill="#FEFECE" filter="url(#f1)" rx="8" ry="8" style="stroke: #A80036; stroke-width: 2.0;"/><path d="M423,60 L423,87 M410,68 L436,68 M423,87 L410,102 M423,87 L436,102 " fill="#FEFECE" filter="url(#f1)" style="stroke: #A80036; stroke-width: 2.0;"/><text fill="#000000" font-family="sans-serif" font-size="14" lengthAdjust="spacingAndGlyphs" textLength="51" x="397.5" y="121.9951">usuário</text><path d="M284,103.25 C284,124.121 284,157.898 284,180.6377 " fill="none" style="stroke: #A80036; stroke-width: 1.0;"/><polygon fill="#A80036" points="284,185.8817,288,176.8817,284,180.8817,280,176.8817,284,185.8817" style="stroke: #A80036; stroke-width: 1.0;"/></g></svg>