<?xml version="1.0" encoding="UTF-8" standalone="yes"?><svg xmlns="http://www.w3.org/2000/svg" xmlns:xlink="http://www.w3.org/1999/xlink" height="332px" style="width:384px;height:332px;" version="1.1" viewBox="0 0 384 332" width="384px"><defs><filter height="300%" id="f1" width="300%" x="-1" y="-1"><feGaussianBlur result="blurOut" stdDeviation="2.0"/><feColorMatrix in="blurOut" result="blurOut2" type="matrix" values="0 0 0 0 0 0 0 0 0 0 0 0 0 0 0 0 0 0 .4 0"/><feOffset dx="4.0" dy="4.0" in="blurOut2" result="blurOut3"/><feBlend in="SourceGraphic" in2="blurOut3" mode="normal"/></filter></defs><g><polygon fill="#FFFFFF" filter="url(#f1)" points="22,121,32,111,212,111,212,196,202,206,22,206,22,121" style="stroke: #000000; stroke-width: 2.0;"/><line style="stroke: #000000; stroke-width: 2.0;" x1="202" x2="211" y1="121" y2="112"/><line style="stroke: #000000; stroke-width: 2.0;" x1="22" x2="202" y1="121" y2="121"/><line style="stroke: #000000; stroke-width: 2.0;" x1="202" x2="202" y1="121" y2="206"/><text fill="#000000" font-family="sans-serif" font-size="14" font-weight="bold" lengthAdjust="spacingAndGlyphs" textLength="95" x="65.5" y="136.9951">smartphone</text><polygon fill="#FFFFFF" filter="url(#f1)" points="22,240,32,230,379,230,379,317,369,327,22,327,22,240" style="stroke: #000000; stroke-width: 2.0;"/><line style="stroke: #000000; stroke-width: 2.0;" x1="369" x2="378" y1="240" y2="231"/><line style="stroke: #000000; stroke-width: 2.0;" x1="22" x2="369" y1="240" y2="240"/><line style="stroke: #000000; stroke-width: 2.0;" x1="369" x2="369" y1="240" y2="327"/><text fill="#000000" font-family="sans-serif" font-size="14" font-weight="bold" lengthAdjust="spacingAndGlyphs" textLength="66" x="163.5" y="255.9951">servidor</text><rect fill="#FEFECE" filter="url(#f1)" height="39.2969" style="stroke: #A80036; stroke-width: 1.5;" width="157" x="38.5" y="151"/><polygon fill="#FEFECE" points="178.5,156,178.5,170,190.5,170,190.5,162,184.5,156,178.5,156" style="stroke: #A80036; stroke-width: 1.5;"/><line style="stroke: #A80036; stroke-width: 1.5;" x1="184.5" x2="184.5" y1="156" y2="162"/><line style="stroke: #A80036; stroke-width: 1.5;" x1="190.5" x2="184.5" y1="162" y2="162"/><text fill="#000000" font-family="sans-serif" font-size="14" lengthAdjust="spacingAndGlyphs" textLength="127" x="48.5" y="176.9951">aplicação frontend</text><rect fill="#FEFECE" filter="url(#f1)" height="39.2969" style="stroke: #A80036; stroke-width: 1.5;" width="158" x="38" y="271"/><polygon fill="#FEFECE" points="179,276,179,290,191,290,191,282,185,276,179,276" style="stroke: #A80036; stroke-width: 1.5;"/><line style="stroke: #A80036; stroke-width: 1.5;" x1="185" x2="185" y1="276" y2="282"/><line style="stroke: #A80036; stroke-width: 1.5;" x1="191" x2="185" y1="282" y2="282"/><text fill="#000000" font-family="sans-serif" font-size="14" lengthAdjust="spacingAndGlyphs" textLength="128" x="48" y="296.9951">aplicação backend</text><path d="M231,280 C231,270 297,270 297,270 C297,270 363,270 363,280 L363,301.2969 C363,311.2969 297,311.2969 297,311.2969 C297,311.2969 231,311.2969 231,301.2969 L231,280 " fill="#FEFECE" filter="url(#f1)" style="stroke: #A80036; stroke-width: 1.5;"/><path d="M231,280 C231,290 297,290 297,290 C297,290 363,290 363,280 " fill="none" style="stroke: #A80036; stroke-width: 1.5;"/><text fill="#000000" font-family="sans-serif" font-size="14" lengthAdjust="spacingAndGlyphs" textLength="112" x="241" y="302.9951">banco de dados</text><ellipse cx="117" cy="18" fill="#FEFECE" filter="url(#f1)" rx="8" ry="8" style="stroke: #A80036; stroke-width: 2.0;"/><path d="M117,26 L117,53 M104,34 L130,34 M117,53 L104,68 M117,53 L130,68 " fill="#FEFECE" filter="url(#f1)" style="stroke: #A80036; stroke-width: 2.0;"/><text fill="#000000" font-family="sans-serif" font-size="14" lengthAdjust="spacingAndGlyphs" textLength="51" x="91.5" y="87.9951">usuário</text><path d="M117,91.12 C117,109.268 117,130.03 117,145.624 " fill="none" style="stroke: #A80036; stroke-width: 1.0;"/><polygon fill="#A80036" points="117,150.704,121,141.704,117,145.704,113,141.704,117,150.704" style="stroke: #A80036; stroke-width: 1.0;"/><path d="M117,190.197 C117,210.653 117,243.4886 117,265.7514 " fill="none" style="stroke: #A80036; stroke-width: 1.0;"/><polygon fill="#A80036" points="117,270.89,121,261.89,117,265.89,113,261.89,117,270.89" style="stroke: #A80036; stroke-width: 1.0;"/><path d="M196.102,290.5 C205.947,290.5 215.792,290.5 225.637,290.5 " fill="none" style="stroke: #A80036; stroke-width: 1.0;"/><polygon fill="#A80036" points="230.785,290.5,221.785,286.5,225.785,290.5,221.785,294.5,230.785,290.5" style="stroke: #A80036; stroke-width: 1.0;"/></g></svg>