<?xml version="1.0" encoding="UTF-8" standalone="yes"?><svg xmlns="http://www.w3.org/2000/svg" xmlns:xlink="http://www.w3.org/1999/xlink" height="125px" style="width:651px;height:125px;" version="1.1" viewBox="0 0 651 125" width="651px"><defs><filter height="300%" id="f1" width="300%" x="-1" y="-1"><feGaussianBlur result="blurOut" stdDeviation="2.0"/><feColorMatrix in="blurOut" result="blurOut2" type="matrix" values="0 0 0 0 0 0 0 0 0 0 0 0 0 0 0 0 0 0 .4 0"/><feOffset dx="4.0" dy="4.0" in="blurOut2" result="blurOut3"/><feBlend in="SourceGraphic" in2="blurOut3" mode="normal"/></filter></defs><g><polygon fill="#FFFFFF" filter="url(#f1)" points="75.5,35,85.5,25,265.5,25,265.5,110,255.5,120,75.5,120,75.5,35" style="stroke: #000000; stroke-width: 2.0;"/><line style="stroke: #000000; stroke-width: 2.0;" x1="255.5" x2="264.5" y1="35" y2="26"/><line style="stroke: #000000; stroke-width: 2.0;" x1="75.5" x2="255.5" y1="35" y2="35"/><line style="stroke: #000000; stroke-width: 2.0;" x1="255.5" x2="255.5" y1="35" y2="120"/><text fill="#000000" font-family="sans-serif" font-size="14" font-weight="bold" lengthAdjust="spacingAndGlyphs" textLength="95" x="119" y="50.9951">smartphone</text><polygon fill="#FFFFFF" filter="url(#f1)" points="289.5,34,299.5,24,646.5,24,646.5,111,636.5,121,289.5,121,289.5,34" style="stroke: #000000; stroke-width: 2.0;"/><line style="stroke: #000000; stroke-width: 2.0;" x1="636.5" x2="645.5" y1="34" y2="25"/><line style="stroke: #000000; stroke-width: 2.0;" x1="289.5" x2="636.5" y1="34" y2="34"/><line style="stroke: #000000; stroke-width: 2.0;" x1="636.5" x2="636.5" y1="34" y2="121"/><text fill="#000000" font-family="sans-serif" font-size="14" font-weight="bold" lengthAdjust="spacingAndGlyphs" textLength="56" x="436" y="49.9951">servior</text><rect fill="#FEFECE" filter="url(#f1)" height="39.2969" style="stroke: #A80036; stroke-width: 1.5;" width="157" x="92" y="65"/><polygon fill="#FEFECE" points="232,70,232,84,244,84,244,76,238,70,232,70" style="stroke: #A80036; stroke-width: 1.5;"/><line style="stroke: #A80036; stroke-width: 1.5;" x1="238" x2="238" y1="70" y2="76"/><line style="stroke: #A80036; stroke-width: 1.5;" x1="244" x2="238" y1="76" y2="76"/><text fill="#000000" font-family="sans-serif" font-size="14" lengthAdjust="spacingAndGlyphs" textLength="127" x="102" y="90.9951">aplicação frontend</text><rect fill="#FEFECE" filter="url(#f1)" height="39.2969" style="stroke: #A80036; stroke-width: 1.5;" width="158" x="472.5" y="65"/><polygon fill="#FEFECE" points="613.5,70,613.5,84,625.5,84,625.5,76,619.5,70,613.5,70" style="stroke: #A80036; stroke-width: 1.5;"/><line style="stroke: #A80036; stroke-width: 1.5;" x1="619.5" x2="619.5" y1="70" y2="76"/><line style="stroke: #A80036; stroke-width: 1.5;" x1="625.5" x2="619.5" y1="76" y2="76"/><text fill="#000000" font-family="sans-serif" font-size="14" lengthAdjust="spacingAndGlyphs" textLength="128" x="482.5" y="90.9951">aplicação backend</text><path d="M305.5,74 C305.5,64 371.5,64 371.5,64 C371.5,64 437.5,64 437.5,74 L437.5,95.2969 C437.5,105.2969 371.5,105.2969 371.5,105.2969 C371.5,105.2969 305.5,105.2969 305.5,95.2969 L305.5,74 " fill="#FEFECE" filter="url(#f1)" style="stroke: #A80036; stroke-width: 1.5;"/><path d="M305.5,74 C305.5,84 371.5,84 371.5,84 C371.5,84 437.5,84 437.5,74 " fill="none" style="stroke: #A80036; stroke-width: 1.5;"/><text fill="#000000" font-family="sans-serif" font-size="14" lengthAdjust="spacingAndGlyphs" textLength="112" x="315.5" y="96.9951">banco de dados</text><ellipse cx="31.5" cy="53" fill="#FEFECE" filter="url(#f1)" rx="8" ry="8" style="stroke: #A80036; stroke-width: 2.0;"/><path d="M31.5,61 L31.5,88 M18.5,69 L44.5,69 M31.5,88 L18.5,103 M31.5,88 L44.5,103 " fill="#FEFECE" filter="url(#f1)" style="stroke: #A80036; stroke-width: 2.0;"/><text fill="#000000" font-family="sans-serif" font-size="14" lengthAdjust="spacingAndGlyphs" textLength="51" x="6" y="122.9951">usuário</text></g></svg>