<?xml version="1.0" encoding="UTF-8" standalone="yes"?><svg xmlns="http://www.w3.org/2000/svg" xmlns:xlink="http://www.w3.org/1999/xlink" height="125px" style="width:654px;height:125px;" version="1.1" viewBox="0 0 654 125" width="654px"><defs><filter height="300%" id="f1" width="300%" x="-1" y="-1"><feGaussianBlur result="blurOut" stdDeviation="2.0"/><feColorMatrix in="blurOut" result="blurOut2" type="matrix" values="0 0 0 0 0 0 0 0 0 0 0 0 0 0 0 0 0 0 .4 0"/><feOffset dx="4.0" dy="4.0" in="blurOut2" result="blurOut3"/><feBlend in="SourceGraphic" in2="blurOut3" mode="normal"/></filter></defs><g><polygon fill="#FFFFFF" filter="url(#f1)" points="76.5,35,86.5,25,268.5,25,268.5,110,258.5,120,76.5,120,76.5,35" style="stroke: #000000; stroke-width: 2.0;"/><line style="stroke: #000000; stroke-width: 2.0;" x1="258.5" x2="267.5" y1="35" y2="26"/><line style="stroke: #000000; stroke-width: 2.0;" x1="76.5" x2="258.5" y1="35" y2="35"/><line style="stroke: #000000; stroke-width: 2.0;" x1="258.5" x2="258.5" y1="35" y2="120"/><text fill="#000000" font-family="sans-serif" font-size="14" font-weight="bold" lengthAdjust="spacingAndGlyphs" textLength="95" x="121" y="50.9951">smartphone</text><polygon fill="#FFFFFF" filter="url(#f1)" points="292.5,34,302.5,24,649.5,24,649.5,111,639.5,121,292.5,121,292.5,34" style="stroke: #000000; stroke-width: 2.0;"/><line style="stroke: #000000; stroke-width: 2.0;" x1="639.5" x2="648.5" y1="34" y2="25"/><line style="stroke: #000000; stroke-width: 2.0;" x1="292.5" x2="639.5" y1="34" y2="34"/><line style="stroke: #000000; stroke-width: 2.0;" x1="639.5" x2="639.5" y1="34" y2="121"/><text fill="#000000" font-family="sans-serif" font-size="14" font-weight="bold" lengthAdjust="spacingAndGlyphs" textLength="56" x="439" y="49.9951">servior</text><rect fill="#FEFECE" filter="url(#f1)" height="39.2969" style="stroke: #A80036; stroke-width: 1.5;" width="160" x="92.5" y="65"/><polygon fill="#FEFECE" points="235.5,70,235.5,84,247.5,84,247.5,76,241.5,70,235.5,70" style="stroke: #A80036; stroke-width: 1.5;"/><line style="stroke: #A80036; stroke-width: 1.5;" x1="241.5" x2="241.5" y1="70" y2="76"/><line style="stroke: #A80036; stroke-width: 1.5;" x1="247.5" x2="241.5" y1="76" y2="76"/><text fill="#000000" font-family="sans-serif" font-size="14" lengthAdjust="spacingAndGlyphs" textLength="130" x="102.5" y="90.9951">aplicacao_frontend</text><rect fill="#FEFECE" filter="url(#f1)" height="39.2969" style="stroke: #A80036; stroke-width: 1.5;" width="158" x="475.5" y="65"/><polygon fill="#FEFECE" points="616.5,70,616.5,84,628.5,84,628.5,76,622.5,70,616.5,70" style="stroke: #A80036; stroke-width: 1.5;"/><line style="stroke: #A80036; stroke-width: 1.5;" x1="622.5" x2="622.5" y1="70" y2="76"/><line style="stroke: #A80036; stroke-width: 1.5;" x1="628.5" x2="622.5" y1="76" y2="76"/><text fill="#000000" font-family="sans-serif" font-size="14" lengthAdjust="spacingAndGlyphs" textLength="128" x="485.5" y="90.9951">aplicação backend</text><path d="M308.5,74 C308.5,64 374.5,64 374.5,64 C374.5,64 440.5,64 440.5,74 L440.5,95.2969 C440.5,105.2969 374.5,105.2969 374.5,105.2969 C374.5,105.2969 308.5,105.2969 308.5,95.2969 L308.5,74 " fill="#FEFECE" filter="url(#f1)" style="stroke: #A80036; stroke-width: 1.5;"/><path d="M308.5,74 C308.5,84 374.5,84 374.5,84 C374.5,84 440.5,84 440.5,74 " fill="none" style="stroke: #A80036; stroke-width: 1.5;"/><text fill="#000000" font-family="sans-serif" font-size="14" lengthAdjust="spacingAndGlyphs" textLength="112" x="318.5" y="96.9951">banco de dados</text><ellipse cx="31.5" cy="53" fill="#FEFECE" filter="url(#f1)" rx="8" ry="8" style="stroke: #A80036; stroke-width: 2.0;"/><path d="M31.5,61 L31.5,88 M18.5,69 L44.5,69 M31.5,88 L18.5,103 M31.5,88 L44.5,103 " fill="#FEFECE" filter="url(#f1)" style="stroke: #A80036; stroke-width: 2.0;"/><text fill="#000000" font-family="sans-serif" font-size="14" lengthAdjust="spacingAndGlyphs" textLength="51" x="6" y="122.9951">usuário</text></g></svg>