<?xml version="1.0" encoding="UTF-8" standalone="yes"?><svg xmlns="http://www.w3.org/2000/svg" xmlns:xlink="http://www.w3.org/1999/xlink" height="124px" style="width:487px;height:124px;" version="1.1" viewBox="0 0 487 124" width="487px"><defs><filter height="300%" id="f1" width="300%" x="-1" y="-1"><feGaussianBlur result="blurOut" stdDeviation="2.0"/><feColorMatrix in="blurOut" result="blurOut2" type="matrix" values="0 0 0 0 0 0 0 0 0 0 0 0 0 0 0 0 0 0 .4 0"/><feOffset dx="4.0" dy="4.0" in="blurOut2" result="blurOut3"/><feBlend in="SourceGraphic" in2="blurOut3" mode="normal"/></filter></defs><g><polygon fill="#FFFFFF" filter="url(#f1)" points="76.5,34,86.5,24,268.5,24,268.5,109,258.5,119,76.5,119,76.5,34" style="stroke: #000000; stroke-width: 2.0;"/><line style="stroke: #000000; stroke-width: 2.0;" x1="258.5" x2="267.5" y1="34" y2="25"/><line style="stroke: #000000; stroke-width: 2.0;" x1="76.5" x2="258.5" y1="34" y2="34"/><line style="stroke: #000000; stroke-width: 2.0;" x1="258.5" x2="258.5" y1="34" y2="119"/><text fill="#000000" font-family="sans-serif" font-size="14" font-weight="bold" lengthAdjust="spacingAndGlyphs" textLength="95" x="121" y="49.9951">smartphone</text><polygon fill="#FFFFFF" filter="url(#f1)" points="292.5,34,302.5,24,482.5,24,482.5,109,472.5,119,292.5,119,292.5,34" style="stroke: #000000; stroke-width: 2.0;"/><line style="stroke: #000000; stroke-width: 2.0;" x1="472.5" x2="481.5" y1="34" y2="25"/><line style="stroke: #000000; stroke-width: 2.0;" x1="292.5" x2="472.5" y1="34" y2="34"/><line style="stroke: #000000; stroke-width: 2.0;" x1="472.5" x2="472.5" y1="34" y2="119"/><text fill="#000000" font-family="sans-serif" font-size="14" font-weight="bold" lengthAdjust="spacingAndGlyphs" textLength="56" x="355.5" y="49.9951">servior</text><rect fill="#FEFECE" filter="url(#f1)" height="39.2969" style="stroke: #A80036; stroke-width: 1.5;" width="160" x="92.5" y="64"/><polygon fill="#FEFECE" points="235.5,69,235.5,83,247.5,83,247.5,75,241.5,69,235.5,69" style="stroke: #A80036; stroke-width: 1.5;"/><line style="stroke: #A80036; stroke-width: 1.5;" x1="241.5" x2="241.5" y1="69" y2="75"/><line style="stroke: #A80036; stroke-width: 1.5;" x1="247.5" x2="241.5" y1="75" y2="75"/><text fill="#000000" font-family="sans-serif" font-size="14" lengthAdjust="spacingAndGlyphs" textLength="130" x="102.5" y="89.9951">aplicacao_frontend</text><rect fill="#FEFECE" filter="url(#f1)" height="39.2969" style="stroke: #A80036; stroke-width: 1.5;" width="158" x="308.5" y="64"/><polygon fill="#FEFECE" points="449.5,69,449.5,83,461.5,83,461.5,75,455.5,69,449.5,69" style="stroke: #A80036; stroke-width: 1.5;"/><line style="stroke: #A80036; stroke-width: 1.5;" x1="455.5" x2="455.5" y1="69" y2="75"/><line style="stroke: #A80036; stroke-width: 1.5;" x1="461.5" x2="455.5" y1="75" y2="75"/><text fill="#000000" font-family="sans-serif" font-size="14" lengthAdjust="spacingAndGlyphs" textLength="128" x="318.5" y="89.9951">aplicação backend</text><ellipse cx="31.5" cy="52" fill="#FEFECE" filter="url(#f1)" rx="8" ry="8" style="stroke: #A80036; stroke-width: 2.0;"/><path d="M31.5,60 L31.5,87 M18.5,68 L44.5,68 M31.5,87 L18.5,102 M31.5,87 L44.5,102 " fill="#FEFECE" filter="url(#f1)" style="stroke: #A80036; stroke-width: 2.0;"/><text fill="#000000" font-family="sans-serif" font-size="14" lengthAdjust="spacingAndGlyphs" textLength="51" x="6" y="121.9951">usuário</text></g></svg>