<?xml version="1.0" encoding="UTF-8" standalone="yes"?><svg xmlns="http://www.w3.org/2000/svg" xmlns:xlink="http://www.w3.org/1999/xlink" height="247px" style="width:384px;height:247px;" version="1.1" viewBox="0 0 384 247" width="384px"><defs><filter height="300%" id="f1" width="300%" x="-1" y="-1"><feGaussianBlur result="blurOut" stdDeviation="2.0"/><feColorMatrix in="blurOut" result="blurOut2" type="matrix" values="0 0 0 0 0 0 0 0 0 0 0 0 0 0 0 0 0 0 .4 0"/><feOffset dx="4.0" dy="4.0" in="blurOut2" result="blurOut3"/><feBlend in="SourceGraphic" in2="blurOut3" mode="normal"/></filter></defs><g><polygon fill="#FFFFFF" filter="url(#f1)" points="22,34,32,24,212,24,212,109,202,119,22,119,22,34" style="stroke: #000000; stroke-width: 2.0;"/><line style="stroke: #000000; stroke-width: 2.0;" x1="202" x2="211" y1="34" y2="25"/><line style="stroke: #000000; stroke-width: 2.0;" x1="22" x2="202" y1="34" y2="34"/><line style="stroke: #000000; stroke-width: 2.0;" x1="202" x2="202" y1="34" y2="119"/><text fill="#000000" font-family="sans-serif" font-size="14" font-weight="bold" lengthAdjust="spacingAndGlyphs" textLength="95" x="65.5" y="49.9951">smartphone</text><polygon fill="#FFFFFF" filter="url(#f1)" points="22,155,32,145,379,145,379,232,369,242,22,242,22,155" style="stroke: #000000; stroke-width: 2.0;"/><line style="stroke: #000000; stroke-width: 2.0;" x1="369" x2="378" y1="155" y2="146"/><line style="stroke: #000000; stroke-width: 2.0;" x1="22" x2="369" y1="155" y2="155"/><line style="stroke: #000000; stroke-width: 2.0;" x1="369" x2="369" y1="155" y2="242"/><text fill="#000000" font-family="sans-serif" font-size="14" font-weight="bold" lengthAdjust="spacingAndGlyphs" textLength="56" x="168.5" y="170.9951">servior</text><rect fill="#FEFECE" filter="url(#f1)" height="39.2969" style="stroke: #A80036; stroke-width: 1.5;" width="157" x="38.5" y="64"/><polygon fill="#FEFECE" points="178.5,69,178.5,83,190.5,83,190.5,75,184.5,69,178.5,69" style="stroke: #A80036; stroke-width: 1.5;"/><line style="stroke: #A80036; stroke-width: 1.5;" x1="184.5" x2="184.5" y1="69" y2="75"/><line style="stroke: #A80036; stroke-width: 1.5;" x1="190.5" x2="184.5" y1="75" y2="75"/><text fill="#000000" font-family="sans-serif" font-size="14" lengthAdjust="spacingAndGlyphs" textLength="127" x="48.5" y="89.9951">aplicação frontend</text><rect fill="#FEFECE" filter="url(#f1)" height="39.2969" style="stroke: #A80036; stroke-width: 1.5;" width="158" x="38" y="186"/><polygon fill="#FEFECE" points="179,191,179,205,191,205,191,197,185,191,179,191" style="stroke: #A80036; stroke-width: 1.5;"/><line style="stroke: #A80036; stroke-width: 1.5;" x1="185" x2="185" y1="191" y2="197"/><line style="stroke: #A80036; stroke-width: 1.5;" x1="191" x2="185" y1="197" y2="197"/><text fill="#000000" font-family="sans-serif" font-size="14" lengthAdjust="spacingAndGlyphs" textLength="128" x="48" y="211.9951">aplicação backend</text><path d="M231,195 C231,185 297,185 297,185 C297,185 363,185 363,195 L363,216.2969 C363,226.2969 297,226.2969 297,226.2969 C297,226.2969 231,226.2969 231,216.2969 L231,195 " fill="#FEFECE" filter="url(#f1)" style="stroke: #A80036; stroke-width: 1.5;"/><path d="M231,195 C231,205 297,205 297,205 C297,205 363,205 363,195 " fill="none" style="stroke: #A80036; stroke-width: 1.5;"/><text fill="#000000" font-family="sans-serif" font-size="14" lengthAdjust="spacingAndGlyphs" textLength="112" x="241" y="217.9951">banco de dados</text><ellipse cx="256" cy="52" fill="#FEFECE" filter="url(#f1)" rx="8" ry="8" style="stroke: #A80036; stroke-width: 2.0;"/><path d="M256,60 L256,87 M243,68 L269,68 M256,87 L243,102 M256,87 L269,102 " fill="#FEFECE" filter="url(#f1)" style="stroke: #A80036; stroke-width: 2.0;"/><text fill="#000000" font-family="sans-serif" font-size="14" lengthAdjust="spacingAndGlyphs" textLength="51" x="230.5" y="121.9951">usuário</text><path d="M117,103.25 C117,124.121 117,157.898 117,180.6377 " fill="none" style="stroke: #A80036; stroke-width: 1.0;"/><polygon fill="#A80036" points="117,185.8817,121,176.8817,117,180.8817,113,176.8817,117,185.8817" style="stroke: #A80036; stroke-width: 1.0;"/><path d="M196.102,205.5 C205.947,205.5 215.792,205.5 225.637,205.5 " fill="none" style="stroke: #A80036; stroke-width: 1.0;"/><polygon fill="#A80036" points="230.785,205.5,221.785,201.5,225.785,205.5,221.785,209.5,230.785,205.5" style="stroke: #A80036; stroke-width: 1.0;"/></g></svg>